<svg xmlns="http://www.w3.org/2000/svg" xmlns:xlink="http://www.w3.org/1999/xlink" width="70" zoomAndPan="magnify" viewBox="0 0 52.5 52.499999" height="70" preserveAspectRatio="xMidYMid meet" version="1.0"><defs><g/><clipPath id="7efd5d6488"><path d="M 0.816406 10 L 51.1875 10 L 51.1875 42.265625 L 0.816406 42.265625 Z M 0.816406 10 " clip-rule="nonzero"/></clipPath></defs><g clip-path="url(#7efd5d6488)"><path fill="#00bf63" d="M 51.109375 18.449219 C 51.113281 18.496094 51.113281 18.539062 51.109375 18.582031 L 50.046875 34.183594 L 50.046875 34.242188 C 50.046875 38.683594 47.726562 41.050781 43.320312 41.050781 L 14.84375 38.425781 C 13.753906 38.335938 9.484375 37.796875 8.542969 37.585938 C 8.28125 37.527344 8.042969 37.578125 7.824219 37.730469 C 5.601562 39.320312 3.292969 40.773438 0.894531 42.089844 C 1.617188 40.597656 2.179688 39.042969 2.574219 37.429688 C 3.058594 35.550781 3.414062 33.648438 3.648438 31.722656 C 3.660156 31.613281 3.652344 31.5 3.625 31.394531 C 3.425781 30.628906 3.332031 29.851562 3.34375 29.058594 L 3.34375 26.910156 C 3.34375 21.285156 3.34375 20.667969 7.722656 18.820312 L 15.558594 17.011719 L 31.03125 13.445312 L 42.109375 10.886719 C 46.519531 9.871094 51.089844 14.144531 51.109375 18.449219 Z M 51.109375 18.449219 " fill-opacity="1" fill-rule="nonzero"/></g><g fill="#ffffff" fill-opacity="1"><g transform="translate(4.494009, 30.964487)"><g><path d="M 4.765625 -7.234375 L 4.765625 -5.5 L 4 -5.5 C 3.46875 -5.5 3.035156 -5.335938 2.703125 -5.015625 C 2.378906 -4.691406 2.21875 -4.222656 2.21875 -3.609375 C 2.21875 -3.003906 2.382812 -2.539062 2.71875 -2.21875 C 3.050781 -1.894531 3.472656 -1.734375 3.984375 -1.734375 L 4.765625 -1.734375 L 4.765625 0 L 3.640625 0 C 3.171875 0 2.734375 -0.09375 2.328125 -0.28125 C 1.929688 -0.46875 1.582031 -0.722656 1.28125 -1.046875 C 0.988281 -1.378906 0.757812 -1.765625 0.59375 -2.203125 C 0.425781 -2.640625 0.34375 -3.109375 0.34375 -3.609375 C 0.34375 -4.109375 0.425781 -4.578125 0.59375 -5.015625 C 0.757812 -5.460938 0.988281 -5.847656 1.28125 -6.171875 C 1.582031 -6.492188 1.929688 -6.75 2.328125 -6.9375 C 2.734375 -7.132812 3.171875 -7.234375 3.640625 -7.234375 Z M 4.765625 -7.234375 "/></g></g></g><g fill="#ffffff" fill-opacity="1"><g transform="translate(9.656618, 30.964487)"><g><path d="M 2.015625 -7.234375 L 2.015625 -4.875 C 2.160156 -4.945312 2.304688 -5.007812 2.453125 -5.0625 C 2.609375 -5.113281 2.78125 -5.140625 2.96875 -5.140625 C 3.257812 -5.140625 3.519531 -5.085938 3.75 -4.984375 C 3.976562 -4.878906 4.164062 -4.738281 4.3125 -4.5625 C 4.46875 -4.394531 4.585938 -4.191406 4.671875 -3.953125 C 4.753906 -3.722656 4.796875 -3.484375 4.796875 -3.234375 L 4.796875 0 L 3.15625 0 L 3.15625 -2.9375 C 3.15625 -3.144531 3.097656 -3.296875 2.984375 -3.390625 C 2.878906 -3.492188 2.742188 -3.546875 2.578125 -3.546875 C 2.410156 -3.546875 2.273438 -3.492188 2.171875 -3.390625 C 2.066406 -3.296875 2.015625 -3.144531 2.015625 -2.9375 L 2.015625 0 L 0.359375 0 L 0.359375 -7.234375 Z M 2.015625 -7.234375 "/></g></g></g><g fill="#ffffff" fill-opacity="1"><g transform="translate(14.819227, 30.964487)"><g><path d="M 5.890625 0 L 4.234375 0 L 4.234375 -2.359375 C 4.234375 -2.765625 4.132812 -3.078125 3.9375 -3.296875 C 3.75 -3.523438 3.457031 -3.640625 3.0625 -3.640625 C 2.914062 -3.640625 2.769531 -3.609375 2.625 -3.546875 C 2.488281 -3.484375 2.367188 -3.40625 2.265625 -3.3125 C 2.171875 -3.21875 2.09375 -3.101562 2.03125 -2.96875 C 1.96875 -2.832031 1.9375 -2.691406 1.9375 -2.546875 C 1.9375 -2.191406 2.039062 -1.910156 2.25 -1.703125 C 2.457031 -1.492188 2.71875 -1.390625 3.03125 -1.390625 C 3.1875 -1.390625 3.328125 -1.398438 3.453125 -1.421875 C 3.585938 -1.453125 3.710938 -1.488281 3.828125 -1.53125 L 3.828125 -0.171875 C 3.660156 -0.0546875 3.488281 0.0195312 3.3125 0.0625 C 3.132812 0.101562 2.929688 0.125 2.703125 0.125 C 2.390625 0.125 2.085938 0.0625 1.796875 -0.0625 C 1.503906 -0.195312 1.242188 -0.378906 1.015625 -0.609375 C 0.796875 -0.835938 0.617188 -1.109375 0.484375 -1.421875 C 0.347656 -1.742188 0.28125 -2.101562 0.28125 -2.5 C 0.28125 -2.875 0.347656 -3.21875 0.484375 -3.53125 C 0.617188 -3.851562 0.804688 -4.132812 1.046875 -4.375 C 1.296875 -4.613281 1.585938 -4.800781 1.921875 -4.9375 C 2.253906 -5.070312 2.625 -5.140625 3.03125 -5.140625 C 3.46875 -5.140625 3.859375 -5.078125 4.203125 -4.953125 C 4.554688 -4.835938 4.859375 -4.671875 5.109375 -4.453125 C 5.359375 -4.242188 5.550781 -3.992188 5.6875 -3.703125 C 5.820312 -3.410156 5.890625 -3.09375 5.890625 -2.75 Z M 5.890625 0 "/></g></g></g><g fill="#ffffff" fill-opacity="1"><g transform="translate(21.127937, 30.964487)"><g><path d="M 2 -6.265625 L 2 -5.0625 L 3.15625 -5.0625 L 3.15625 -3.546875 L 1.984375 -3.546875 L 1.984375 -2.203125 C 1.984375 -1.941406 2.039062 -1.757812 2.15625 -1.65625 C 2.269531 -1.5625 2.492188 -1.515625 2.828125 -1.515625 C 2.878906 -1.515625 2.929688 -1.515625 2.984375 -1.515625 C 3.046875 -1.515625 3.113281 -1.519531 3.1875 -1.53125 L 3.1875 0 L 2.203125 0 C 1.921875 0 1.664062 -0.0390625 1.4375 -0.125 C 1.21875 -0.21875 1.03125 -0.34375 0.875 -0.5 C 0.726562 -0.65625 0.609375 -0.84375 0.515625 -1.0625 C 0.429688 -1.28125 0.390625 -1.523438 0.390625 -1.796875 L 0.390625 -6.265625 Z M 2 -6.265625 "/></g></g></g><g fill="#ffffff" fill-opacity="1"><g transform="translate(24.566235, 30.964487)"><g><path d="M 3.484375 -5.015625 L 3.484375 -3.671875 L 2.171875 -3.671875 C 2.097656 -3.671875 2.023438 -3.648438 1.953125 -3.609375 C 1.890625 -3.566406 1.859375 -3.507812 1.859375 -3.4375 C 1.859375 -3.332031 2.066406 -3.195312 2.484375 -3.03125 C 2.890625 -2.863281 3.207031 -2.664062 3.4375 -2.4375 C 3.675781 -2.207031 3.796875 -1.921875 3.796875 -1.578125 C 3.796875 -1.054688 3.640625 -0.660156 3.328125 -0.390625 C 3.023438 -0.128906 2.617188 0 2.109375 0 L 0.21875 0 L 0.21875 -1.40625 L 1.828125 -1.40625 C 1.898438 -1.40625 1.960938 -1.421875 2.015625 -1.453125 C 2.066406 -1.492188 2.09375 -1.550781 2.09375 -1.625 C 2.09375 -1.71875 2.039062 -1.785156 1.9375 -1.828125 C 1.832031 -1.878906 1.679688 -1.945312 1.484375 -2.03125 C 1.296875 -2.113281 1.125 -2.195312 0.96875 -2.28125 C 0.820312 -2.375 0.695312 -2.476562 0.59375 -2.59375 C 0.488281 -2.71875 0.40625 -2.859375 0.34375 -3.015625 C 0.289062 -3.179688 0.265625 -3.375 0.265625 -3.59375 C 0.265625 -3.8125 0.304688 -4.007812 0.390625 -4.1875 C 0.484375 -4.363281 0.601562 -4.515625 0.75 -4.640625 C 0.894531 -4.765625 1.0625 -4.859375 1.25 -4.921875 C 1.4375 -4.984375 1.632812 -5.015625 1.84375 -5.015625 Z M 3.484375 -5.015625 "/></g></g></g><g fill="#ffffff" fill-opacity="1"><g transform="translate(28.582744, 30.964487)"><g><path d="M 5.890625 0 L 4.234375 0 L 4.234375 -2.359375 C 4.234375 -2.765625 4.132812 -3.078125 3.9375 -3.296875 C 3.75 -3.523438 3.457031 -3.640625 3.0625 -3.640625 C 2.914062 -3.640625 2.769531 -3.609375 2.625 -3.546875 C 2.488281 -3.484375 2.367188 -3.40625 2.265625 -3.3125 C 2.171875 -3.21875 2.09375 -3.101562 2.03125 -2.96875 C 1.96875 -2.832031 1.9375 -2.691406 1.9375 -2.546875 C 1.9375 -2.191406 2.039062 -1.910156 2.25 -1.703125 C 2.457031 -1.492188 2.71875 -1.390625 3.03125 -1.390625 C 3.1875 -1.390625 3.328125 -1.398438 3.453125 -1.421875 C 3.585938 -1.453125 3.710938 -1.488281 3.828125 -1.53125 L 3.828125 -0.171875 C 3.660156 -0.0546875 3.488281 0.0195312 3.3125 0.0625 C 3.132812 0.101562 2.929688 0.125 2.703125 0.125 C 2.390625 0.125 2.085938 0.0625 1.796875 -0.0625 C 1.503906 -0.195312 1.242188 -0.378906 1.015625 -0.609375 C 0.796875 -0.835938 0.617188 -1.109375 0.484375 -1.421875 C 0.347656 -1.742188 0.28125 -2.101562 0.28125 -2.5 C 0.28125 -2.875 0.347656 -3.21875 0.484375 -3.53125 C 0.617188 -3.851562 0.804688 -4.132812 1.046875 -4.375 C 1.296875 -4.613281 1.585938 -4.800781 1.921875 -4.9375 C 2.253906 -5.070312 2.625 -5.140625 3.03125 -5.140625 C 3.46875 -5.140625 3.859375 -5.078125 4.203125 -4.953125 C 4.554688 -4.835938 4.859375 -4.671875 5.109375 -4.453125 C 5.359375 -4.242188 5.550781 -3.992188 5.6875 -3.703125 C 5.820312 -3.410156 5.890625 -3.09375 5.890625 -2.75 Z M 5.890625 0 "/></g></g></g><g fill="#ffffff" fill-opacity="1"><g transform="translate(34.891453, 30.964487)"><g><path d="M 2.015625 -5.015625 L 2.015625 -2.125 C 2.015625 -1.925781 2.0625 -1.765625 2.15625 -1.640625 C 2.25 -1.515625 2.390625 -1.453125 2.578125 -1.453125 C 2.765625 -1.453125 2.90625 -1.515625 3 -1.640625 C 3.101562 -1.765625 3.15625 -1.925781 3.15625 -2.125 L 3.15625 -5.015625 L 4.734375 -5.015625 L 4.734375 -2.109375 C 4.734375 -1.785156 4.6875 -1.488281 4.59375 -1.21875 C 4.5 -0.945312 4.359375 -0.710938 4.171875 -0.515625 C 3.992188 -0.316406 3.769531 -0.160156 3.5 -0.046875 C 3.226562 0.0664062 2.921875 0.125 2.578125 0.125 C 2.234375 0.125 1.925781 0.0703125 1.65625 -0.03125 C 1.394531 -0.144531 1.171875 -0.300781 0.984375 -0.5 C 0.804688 -0.707031 0.664062 -0.945312 0.5625 -1.21875 C 0.46875 -1.488281 0.421875 -1.785156 0.421875 -2.109375 L 0.421875 -5.015625 Z M 2.015625 -5.015625 "/></g></g></g><g fill="#ffffff" fill-opacity="1"><g transform="translate(40.054064, 30.964487)"><g><path d="M 1.8125 -5.015625 L 1.8125 -4.1875 L 1.84375 -4.1875 C 1.945312 -4.488281 2.101562 -4.703125 2.3125 -4.828125 C 2.519531 -4.953125 2.84375 -5.015625 3.28125 -5.015625 L 3.28125 -3.515625 C 3.007812 -3.492188 2.789062 -3.46875 2.625 -3.4375 C 2.46875 -3.40625 2.34375 -3.347656 2.25 -3.265625 C 2.164062 -3.191406 2.109375 -3.085938 2.078125 -2.953125 C 2.046875 -2.816406 2.03125 -2.632812 2.03125 -2.40625 L 2.03125 0 L 0.375 0 L 0.375 -5.015625 Z M 1.8125 -5.015625 "/></g></g></g><g fill="#ffffff" fill-opacity="1"><g transform="translate(43.492363, 30.964487)"><g><path d="M 3.484375 -5.015625 L 3.484375 -3.671875 L 2.171875 -3.671875 C 2.097656 -3.671875 2.023438 -3.648438 1.953125 -3.609375 C 1.890625 -3.566406 1.859375 -3.507812 1.859375 -3.4375 C 1.859375 -3.332031 2.066406 -3.195312 2.484375 -3.03125 C 2.890625 -2.863281 3.207031 -2.664062 3.4375 -2.4375 C 3.675781 -2.207031 3.796875 -1.921875 3.796875 -1.578125 C 3.796875 -1.054688 3.640625 -0.660156 3.328125 -0.390625 C 3.023438 -0.128906 2.617188 0 2.109375 0 L 0.21875 0 L 0.21875 -1.40625 L 1.828125 -1.40625 C 1.898438 -1.40625 1.960938 -1.421875 2.015625 -1.453125 C 2.066406 -1.492188 2.09375 -1.550781 2.09375 -1.625 C 2.09375 -1.71875 2.039062 -1.785156 1.9375 -1.828125 C 1.832031 -1.878906 1.679688 -1.945312 1.484375 -2.03125 C 1.296875 -2.113281 1.125 -2.195312 0.96875 -2.28125 C 0.820312 -2.375 0.695312 -2.476562 0.59375 -2.59375 C 0.488281 -2.71875 0.40625 -2.859375 0.34375 -3.015625 C 0.289062 -3.179688 0.265625 -3.375 0.265625 -3.59375 C 0.265625 -3.8125 0.304688 -4.007812 0.390625 -4.1875 C 0.484375 -4.363281 0.601562 -4.515625 0.75 -4.640625 C 0.894531 -4.765625 1.0625 -4.859375 1.25 -4.921875 C 1.4375 -4.984375 1.632812 -5.015625 1.84375 -5.015625 Z M 3.484375 -5.015625 "/></g></g></g><g fill="#000000" fill-opacity="1"><g transform="translate(38.749603, 23.790662)"><g><path d="M 2.953125 -2.640625 C 2.953125 -2.453125 2.925781 -2.273438 2.875 -2.109375 C 2.820312 -1.941406 2.738281 -1.796875 2.625 -1.671875 C 2.519531 -1.546875 2.382812 -1.445312 2.21875 -1.375 C 2.050781 -1.300781 1.847656 -1.265625 1.609375 -1.265625 L 1.390625 -1.265625 L 1.390625 -2.171875 L 1.546875 -2.171875 C 1.703125 -2.179688 1.816406 -2.21875 1.890625 -2.28125 C 1.960938 -2.351562 2 -2.46875 2 -2.625 C 2 -2.738281 1.960938 -2.835938 1.890625 -2.921875 C 1.816406 -3.003906 1.71875 -3.046875 1.59375 -3.046875 C 1.476562 -3.046875 1.390625 -3.007812 1.328125 -2.9375 C 1.265625 -2.863281 1.234375 -2.773438 1.234375 -2.671875 L 1.234375 0 L 0.265625 0 L 0.265625 -2.53125 C 0.265625 -2.738281 0.296875 -2.925781 0.359375 -3.09375 C 0.421875 -3.269531 0.507812 -3.421875 0.625 -3.546875 C 0.75 -3.671875 0.894531 -3.765625 1.0625 -3.828125 C 1.238281 -3.898438 1.429688 -3.9375 1.640625 -3.9375 C 1.835938 -3.9375 2.015625 -3.898438 2.171875 -3.828125 C 2.335938 -3.765625 2.476562 -3.671875 2.59375 -3.546875 C 2.707031 -3.429688 2.796875 -3.296875 2.859375 -3.140625 C 2.921875 -2.984375 2.953125 -2.816406 2.953125 -2.640625 Z M 2.953125 -2.640625 "/></g></g></g><g fill="#000000" fill-opacity="1"><g transform="translate(41.823879, 23.790662)"><g><path d="M 0.96875 -2.6875 L 0.96875 -2.234375 L 0.984375 -2.234375 C 1.035156 -2.398438 1.117188 -2.515625 1.234375 -2.578125 C 1.347656 -2.648438 1.523438 -2.6875 1.765625 -2.6875 L 1.765625 -1.875 C 1.617188 -1.863281 1.5 -1.847656 1.40625 -1.828125 C 1.320312 -1.816406 1.253906 -1.789062 1.203125 -1.75 C 1.160156 -1.707031 1.128906 -1.648438 1.109375 -1.578125 C 1.097656 -1.503906 1.09375 -1.40625 1.09375 -1.28125 L 1.09375 0 L 0.203125 0 L 0.203125 -2.6875 Z M 0.96875 -2.6875 "/></g></g></g><g fill="#000000" fill-opacity="1"><g transform="translate(43.66513, 23.790662)"><g><path d="M 2.921875 -1.34375 C 2.921875 -1.15625 2.882812 -0.972656 2.8125 -0.796875 C 2.738281 -0.628906 2.640625 -0.476562 2.515625 -0.34375 C 2.390625 -0.21875 2.238281 -0.117188 2.0625 -0.046875 C 1.894531 0.0234375 1.71875 0.0625 1.53125 0.0625 C 1.34375 0.0625 1.164062 0.0234375 1 -0.046875 C 0.832031 -0.117188 0.6875 -0.21875 0.5625 -0.34375 C 0.4375 -0.476562 0.335938 -0.628906 0.265625 -0.796875 C 0.191406 -0.972656 0.15625 -1.15625 0.15625 -1.34375 C 0.15625 -1.53125 0.191406 -1.707031 0.265625 -1.875 C 0.335938 -2.050781 0.4375 -2.203125 0.5625 -2.328125 C 0.6875 -2.453125 0.832031 -2.550781 1 -2.625 C 1.164062 -2.707031 1.34375 -2.75 1.53125 -2.75 C 1.726562 -2.75 1.910156 -2.707031 2.078125 -2.625 C 2.242188 -2.550781 2.390625 -2.445312 2.515625 -2.3125 C 2.640625 -2.1875 2.738281 -2.039062 2.8125 -1.875 C 2.882812 -1.707031 2.921875 -1.53125 2.921875 -1.34375 Z M 1.53125 -0.78125 C 1.613281 -0.78125 1.6875 -0.796875 1.75 -0.828125 C 1.820312 -0.859375 1.878906 -0.898438 1.921875 -0.953125 C 1.972656 -1.003906 2.007812 -1.0625 2.03125 -1.125 C 2.0625 -1.195312 2.078125 -1.269531 2.078125 -1.34375 C 2.078125 -1.414062 2.0625 -1.484375 2.03125 -1.546875 C 2.007812 -1.617188 1.972656 -1.679688 1.921875 -1.734375 C 1.878906 -1.785156 1.820312 -1.828125 1.75 -1.859375 C 1.6875 -1.890625 1.613281 -1.90625 1.53125 -1.90625 C 1.457031 -1.90625 1.382812 -1.890625 1.3125 -1.859375 C 1.25 -1.828125 1.191406 -1.785156 1.140625 -1.734375 C 1.097656 -1.679688 1.0625 -1.617188 1.03125 -1.546875 C 1.007812 -1.484375 1 -1.414062 1 -1.34375 C 1 -1.269531 1.007812 -1.195312 1.03125 -1.125 C 1.0625 -1.0625 1.097656 -1.003906 1.140625 -0.953125 C 1.191406 -0.898438 1.25 -0.859375 1.3125 -0.828125 C 1.382812 -0.796875 1.457031 -0.78125 1.53125 -0.78125 Z M 1.53125 -0.78125 "/></g></g></g></svg>