<!DOCTYPE svg PUBLIC "-//W3C//DTD SVG 1.1//EN" "http://www.w3.org/Graphics/SVG/1.1/DTD/svg11.dtd">
<!-- Uploaded to: SVG Repo, www.svgrepo.com, Transformed by: SVG Repo Mixer Tools -->
<svg height="98px" width="98px" version="1.1" id="Capa_1" xmlns="http://www.w3.org/2000/svg" xmlns:xlink="http://www.w3.org/1999/xlink" viewBox="0 0 474.855 474.855" xml:space="preserve" fill="#f0f0f0" stroke="#f0f0f0" stroke-width="0.004748550000000001">
<g id="SVGRepo_bgCarrier" stroke-width="0"/>
<g id="SVGRepo_tracerCarrier" stroke-linecap="round" stroke-linejoin="round"/>
<g id="SVGRepo_iconCarrier"> <g> <g> <g> <path style="#f0f0f0ill:#f0f0f0;" d="M415.35,40.667V0h-17.103v40.667h-61.623V0h-17.119v40.667H250.73V0h-17.127v40.667h-71.41V0 h-17.111v40.667H76.624V0H59.505v40.667H3.849v261.911h123.408l-69.678-69.703l21.638-21.655l106.647,106.647L79.201,424.539 l-21.622-21.671l69.662-69.678H3.849v35.481v106.184h467.157V40.667H415.35z M455.481,137.259H19.383V56.185h40.123v36.554 h17.119V56.185h68.459v36.554h17.103V56.185h71.41v36.554h17.119V56.185h68.776v36.554h17.119V56.185h61.623v36.554h17.103 V56.185h40.139v81.074H455.481z"/> </g> </g> </g> </g>
</svg>